PathFileType	4	(X/Y/Z)	pose_F01_0-87.trc
DataRate	CameraRate	NumFrames	NumMarkers	Units	OrigDataRate	OrigDataStartFrame	OrigNumFrames
30	30	10	21	m	30	62	87
Frame#	Time	CHip			RHip			RKnee			RAnkle			RBigToe			RSmallToe			RHeel			LHip			LKnee			LAnkle			LBigToe			LSmallToe			LHeel			Neck			Nose			RShoulder			RElbow			RWrist			LShoulder			LElbow			LWrist			
		X1	Y1	Z1	X2	Y2	Z2	X3	Y3	Z3	X4	Y4	Z4	X5	Y5	Z5	X6	Y6	Z6	X7	Y7	Z7	X8	Y8	Z8	X9	Y9	Z9	X10	Y10	Z10	X11	Y11	Z11	X12	Y12	Z12	X13	Y13	Z13	X14	Y14	Z14	X15	Y15	Z15	X16	Y16	Z16	X17	Y17	Z17	X18	Y18	Z18	X19	Y19	Z19	X20	Y20	Z20	X21	Y21	Z21	
62	2.066666666666667	-0.22464965513577978	1.8896799656573808	-0.3791091168775911	-0.2346971875142807	1.8885067200592671	-0.32116525566946763	-0.2642744488172772	1.7594960426023472	-0.33858053713395186													-0.21056802008960077	1.8918670634306038	-0.43617662372427446	-0.22337118116879906	1.7474778450633772	-0.401912231852826	-0.22115160051922772	1.6288496214876436	-0.4228910722066942	-0.222572248325633	1.579274076185378	-0.4892508617163486	-0.21570677676120492	1.5852419255135137	-0.5152626718791133	-0.21641877950188732	1.624297245003921	-0.3954348326531239	-0.22265569013702977	2.03938933832869	-0.3936498222017248	-0.2369584609108542	2.0961646301478414	-0.41314041765294457	-0.23625787516442043	2.0358711144943133	-0.3021773115413788	-0.2591445359694143	1.9832272740047112	-0.1879260814663765	-0.27780462405414585	2.0160635619251117	-0.11645142724168277	-0.20463165326305705	2.0445514667775897	-0.48766218553958696	-0.19079882918856617	2.0040223847160283	-0.6050861232014652	-0.1719177620687677	2.034993785640845	-0.7354158866240873
63	2.1	-0.22648919717633587	1.8873647915925857	-0.3765303041104146	-0.23472874718030998	1.8862718900270972	-0.3205864544374243	-0.2642744488172772	1.7594960426023472	-0.33858053713395186													-0.21063236122065554	1.8894615540594613	-0.4356925389009669	-0.22261250971326654	1.7477951144952868	-0.3982009814661353	-0.22115160051922772	1.6288496214876436	-0.4228910722066942	-0.222572248325633	1.579274076185378	-0.4892508617163486	-0.21570677676120492	1.5852419255135137	-0.5152626718791133	-0.21641877950188732	1.624297245003921	-0.3954348326531239	-0.2204992622510285	2.0377819045456254	-0.37869745060481524	-0.23328226335164837	2.0927458213300043	-0.41700833528535175	-0.23475871626530623	2.0365325693244447	-0.2909024894836464	-0.26133970220985275	1.9844810952793699	-0.18096879134325303	-0.2778337964671121	2.028076611740173	-0.12065106964776279	-0.2045988282659523	2.043708223821322	-0.47054566819266364	-0.18904711198869947	2.0042622765577938	-0.5986861174412828	-0.17056657151548124	2.037243689506553	-0.7306039779668771
64	2.1333333333333333	-0.22535557426002775	1.888500138109949	-0.37311447854017527	-0.2320229658081395	1.8860508243476461	-0.30512128865067073	-0.2642744488172772	1.7594960426023472	-0.33858053713395186													-0.21143423629440358	1.8892936508473863	-0.43034978648639033	-0.22185383825773405	1.7481123839271964	-0.3944897310794446	-0.22115160051922772	1.6288496214876436	-0.4228910722066942	-0.222572248325633	1.579274076185378	-0.4892508617163486	-0.21570677676120492	1.5852419255135137	-0.5152626718791133	-0.21641877950188732	1.624297245003921	-0.3954348326531239	-0.2212822903570409	2.039182679124918	-0.3736770878714598	-0.23145900420971807	2.091546491698346	-0.41931033654902333	-0.23540937325307823	2.035794596116011	-0.2852982494716405	-0.26204987234403126	1.9835202657581479	-0.17554947839852608	-0.2791303765054585	2.034658380531363	-0.11987757880079424	-0.20464656671263237	2.043320457955377	-0.4619570084060766	-0.19185484005038606	2.0016925909956047	-0.57929890336346	-0.17509033660778486	2.0377196830132474	-0.7262580108201488
65	2.1666666666666665	-0.2232175240484088	1.8873298746497638	-0.3574164054976364	-0.23295134560465602	1.8819996970804698	-0.2987256162306267	-0.2642744488172772	1.7594960426023472	-0.33858053713395186													-0.21540746830911559	1.8885231303965393	-0.4254726928180367	-0.22109516680220154	1.7484296533591057	-0.39077848069275395	-0.22115160051922772	1.6288496214876436	-0.4228910722066942	-0.222572248325633	1.579274076185378	-0.4892508617163486	-0.21570677676120492	1.5852419255135137	-0.5152626718791133	-0.21641877950188732	1.624297245003921	-0.3954348326531239	-0.22293149788250927	2.035809247780086	-0.3616052003823119	-0.22943061601178236	2.0905329547401816	-0.4130452028221133	-0.23695553501261502	2.0290393189127554	-0.27276574655053326	-0.26248573391737257	1.982242790334386	-0.1696450333368798	-0.27914047071342774	2.034302970950201	-0.119953528605212	-0.20567501695858695	2.040319270619393	-0.44725966287076807	-0.19400347867344794	2.001158345464762	-0.5678726829547233	-0.1805599905846102	2.0329418208795964	-0.7148079667141944
66	2.2	-0.22473699784701384	1.8834440911794643	-0.3455983889506674	-0.23690598123914786	1.8790753845459407	-0.2878769263401819	-0.2642744488172772	1.7594960426023472	-0.33858053713395186													-0.2163904399224762	1.8870847230090533	-0.4106767897823236	-0.22033649534666905	1.7487469227910153	-0.38706723030606327	-0.22115160051922772	1.6288496214876436	-0.4228910722066942	-0.222572248325633	1.579274076185378	-0.4892508617163486	-0.21570677676120492	1.5852419255135137	-0.5152626718791133	-0.21641877950188732	1.624297245003921	-0.3954348326531239	-0.2232730225794663	2.0325487862387464	-0.33839934474150596	-0.2321495697962996	2.090451956878806	-0.4056038875559514	-0.23669711392147885	2.029548598929795	-0.2506916866115034	-0.26575858840474276	1.9821028711238566	-0.16532864975819964	-0.2828644796919584	2.031287053145554	-0.10996040829967688	-0.20750048321106587	2.038198347277964	-0.42737540713118816	-0.19766839757895457	1.9976960056195252	-0.5516992078148191	-0.1724310957461301	2.0289301337925676	-0.7148837667914409
67	2.2333333333333334	-0.2289878444449115	1.880406039791854	-0.3351023490226863	-0.2389483111448894	1.8773128515042268	-0.27099003123143695	-0.2642744488172772	1.7594960426023472	-0.33858053713395186													-0.21682781018286307	1.8851819949707873	-0.3958026966865862	-0.21957782389113653	1.7490641922229249	-0.38335597991937254	-0.22115160051922772	1.6288496214876436	-0.4228910722066942	-0.222572248325633	1.579274076185378	-0.4892508617163486	-0.21570677676120492	1.5852419255135137	-0.5152626718791133	-0.21641877950188732	1.624297245003921	-0.3954348326531239	-0.22682745956424266	2.0311728946728995	-0.3332028199307771	-0.23395367422248237	2.089586364667018	-0.39500858796655675	-0.23998915678453814	2.0294263977200298	-0.24549630905663214	-0.26809735044704264	1.977726754264446	-0.15722133108083888	-0.2880042823106769	2.01655220671147	-0.09310390824148057	-0.21037472596571455	2.035507866913258	-0.4192446597588261	-0.19733934716600815	1.993085170521627	-0.5308548915835876	-0.1775567947436927	2.018712381660511	-0.6899633488293332
68	2.2666666666666666	-0.23136894908725059	1.8824609321078976	-0.31856346045776174	-0.2379177320855736	1.876225301294479	-0.2528815544957914	-0.2642744488172772	1.7594960426023472	-0.33858053713395186													-0.21871928973848107	1.8867908159735323	-0.38531806383873085	-0.21881915243560401	1.7493814616548342	-0.37964472953268186	-0.22115160051922772	1.6288496214876436	-0.4228910722066942	-0.222572248325633	1.579274076185378	-0.4892508617163486	-0.21570677676120492	1.5852419255135137	-0.5152626718791133	-0.21641877950188732	1.624297245003921	-0.3954348326531239	-0.22672008242977632	2.02978432250848	-0.32461666986954407	-0.23465527258341667	2.0898710823478788	-0.3819312349242071	-0.24132472914104589	2.0275915442603822	-0.23469715666502902	-0.26434063879702274	1.968636541515046	-0.14408522753974737	-0.2943415310049845	1.9877089137605934	-0.08173850445475604	-0.21234474694960204	2.032967940580156	-0.41625527925849526	-0.19936744475437998	1.9885701630274637	-0.5185493671383811	-0.17804895821691497	2.0070675111189087	-0.6791820834095577
69	2.3	-0.23019622122708042	1.8841277129182112	-0.30697531860958294	-0.23896391840944192	1.8802599585719042	-0.24834078188839664	-0.2642744488172772	1.7594960426023472	-0.33858053713395186													-0.22262380679167965	1.8876174203143723	-0.3809138296586497	-0.21806048098007152	1.7496987310867438	-0.3759334791459912	-0.22115160051922772	1.6288496214876436	-0.4228910722066942	-0.222572248325633	1.579274076185378	-0.4892508617163486	-0.21570677676120492	1.5852419255135137	-0.5152626718791133	-0.21641877950188732	1.624297245003921	-0.3954348326531239	-0.22930919991171714	2.028249211418999	-0.3170378804727291	-0.23426834825948045	2.090080526435131	-0.37342508302596644	-0.2385878921035342	2.0266222800812264	-0.21945237524661285	-0.25948019020264523	1.962729451669243	-0.12928935430506902	-0.3022591115776101	1.963560338819471	-0.07092817892184371	-0.21413034336298956	2.0325298469582957	-0.40554393650886883	-1.8115553267717053	1.892284630680182	1.2998952549791802	-0.17983521568577407	1.988889396902981	-0.6513206623440799
70	2.3333333333333335	-0.2298980904407752	1.8834237880528126	-0.2979018402641776	-0.24035790234665919	1.8798434996605462	-0.2369782985376205	-0.2642744488172772	1.7594960426023472	-0.33858053713395186													-0.2211977827675893	1.885935822016897	-0.3592870570691175	-0.2185043605996837	1.749533488979968	-0.37307165085326066	-0.22115160051922772	1.6288496214876436	-0.4228910722066942	-0.222572248325633	1.579274076185378	-0.4892508617163486	-0.21570677676120492	1.5852419255135137	-0.5152626718791133	-0.21641877950188732	1.624297245003921	-0.3954348326531239	-0.22785448811297665	2.026722000525815	-0.30443574871207135	-0.23499044266016436	2.0912038133464357	-0.3680533224264541	-0.24017445669227652	2.0240104760569166	-0.2159529561272747	-0.25940130933175554	1.956778220788317	-0.12771229822666008	-0.2938947684930878	1.941287328395937	-0.05879623993188023	-0.21296650265384148	2.032041155398261	-0.39359015392002694	-0.20408977606332357	1.9720086578405347	-0.4858775862850569	-1.4612665555553497	1.8785743205054595	0.7280223528483707
71	2.3666666666666667	-0.23164292138766	1.8809690613115633	-0.2950620034146016	-0.23868026197538889	1.8770886080892526	-0.22415850327620634	-0.2642744488172772	1.7594960426023472	-0.33858053713395186													-0.2210832364182046	1.8841191392034673	-0.35038299218826696	-0.21894824021929588	1.7493682468731926	-0.3702098225605301	-0.22115160051922772	1.6288496214876436	-0.4228910722066942	-0.222572248325633	1.579274076185378	-0.4892508617163486	-0.21570677676120492	1.5852419255135137	-0.5152626718791133	-0.21641877950188732	1.624297245003921	-0.3954348326531239	-0.22868894381688346	2.0265881117693163	-0.2997601027952415	-0.23688376821423696	2.093935015124516	-0.36718239897149907	-0.2407793140638656	2.0251260725430664	-0.21119192657707994	-0.256549224005578	1.9560672528911431	-0.1326305681598491	-0.28553042540856555	1.9190143179724035	-0.04666430094191676	-0.21219647309461098	2.0297048113372305	-0.39052019143827404	-0.20618278032979534	1.965456001141964	-0.47357269170294375	-0.18869376514765748	1.9531845202414155	-0.6057674229561097
